<mxfile host="Electron" modified="2024-03-19T16:03:46.232Z" agent="Mozilla/5.0 (Windows NT 10.0; Win64; x64) AppleWebKit/537.36 (KHTML, like Gecko) draw.io/22.0.3 Chrome/114.0.5735.289 Electron/25.8.4 Safari/537.36" etag="5eVef7lK9H-Ry3bDWAag" version="22.0.3" type="device">
  <diagram name="Page-1" id="MxUQ4OJ0iYrJsA3Hvw3g">
    <mxGraphModel dx="4097" dy="2411" grid="1" gridSize="10" guides="1" tooltips="1" connect="1" arrows="1" fold="1" page="1" pageScale="1" pageWidth="827" pageHeight="1169" math="0" shadow="0">
      <root>
        <mxCell id="0" />
        <mxCell id="1" parent="0" />
        <mxCell id="Fy8nT9N8pZBC_BJfb6Fo-108" value="INT&lt;br&gt;FDC BAS (Mou)" style="rounded=0;whiteSpace=wrap;html=1;fontFamily=Helvetica;fontSize=11;fontColor=default;" parent="1" vertex="1">
          <mxGeometry x="409" y="1049" width="170" height="49" as="geometry" />
        </mxCell>
        <mxCell id="Fy8nT9N8pZBC_BJfb6Fo-143" value="TRANSFO 24V" style="rounded=0;whiteSpace=wrap;html=1;fontFamily=Helvetica;fontSize=11;fillColor=#e1d5e7;strokeColor=#9673a6;verticalAlign=top;align=right;fontStyle=1" parent="1" vertex="1">
          <mxGeometry x="269" y="180" width="410" height="160" as="geometry" />
        </mxCell>
        <mxCell id="Fy8nT9N8pZBC_BJfb6Fo-142" value="TELECOMMANDE" style="rounded=0;whiteSpace=wrap;html=1;fontFamily=Helvetica;fontSize=15;fontColor=#333333;fillColor=#f5f5f5;strokeColor=#666666;horizontal=1;verticalAlign=top;fontStyle=1" parent="1" vertex="1">
          <mxGeometry x="124" y="531" width="590" height="350" as="geometry" />
        </mxCell>
        <mxCell id="Fy8nT9N8pZBC_BJfb6Fo-134" value="" style="rounded=0;whiteSpace=wrap;html=1;fontFamily=Helvetica;fontSize=11;fontColor=default;" parent="1" vertex="1">
          <mxGeometry x="464" y="950.5" width="56" height="69.5" as="geometry" />
        </mxCell>
        <mxCell id="Fy8nT9N8pZBC_BJfb6Fo-100" value="" style="group" parent="1" vertex="1" connectable="0">
          <mxGeometry x="429" y="430" width="30" height="55" as="geometry" />
        </mxCell>
        <mxCell id="Fy8nT9N8pZBC_BJfb6Fo-131" value="" style="rounded=0;whiteSpace=wrap;html=1;fontFamily=Helvetica;fontSize=11;fontColor=default;" parent="Fy8nT9N8pZBC_BJfb6Fo-100" vertex="1">
          <mxGeometry x="-10" y="-5" width="40" height="60" as="geometry" />
        </mxCell>
        <mxCell id="Fy8nT9N8pZBC_BJfb6Fo-54" value="" style="ellipse;whiteSpace=wrap;html=1;aspect=fixed;fillColor=#dae8fc;strokeColor=#6c8ebf;" parent="Fy8nT9N8pZBC_BJfb6Fo-100" vertex="1">
          <mxGeometry y="26" width="20" height="20" as="geometry" />
        </mxCell>
        <mxCell id="Fy8nT9N8pZBC_BJfb6Fo-55" value="" style="ellipse;whiteSpace=wrap;html=1;aspect=fixed;" parent="Fy8nT9N8pZBC_BJfb6Fo-100" vertex="1">
          <mxGeometry width="20" height="20" as="geometry" />
        </mxCell>
        <mxCell id="Fy8nT9N8pZBC_BJfb6Fo-7" value="220 V" style="rounded=0;whiteSpace=wrap;html=1;" parent="1" vertex="1">
          <mxGeometry x="289" y="230" width="170" height="60" as="geometry" />
        </mxCell>
        <mxCell id="Fy8nT9N8pZBC_BJfb6Fo-8" value="24V" style="rounded=0;whiteSpace=wrap;html=1;" parent="1" vertex="1">
          <mxGeometry x="459" y="230" width="160" height="60" as="geometry" />
        </mxCell>
        <mxCell id="Fy8nT9N8pZBC_BJfb6Fo-30" value="A.A2" style="ellipse;whiteSpace=wrap;html=1;aspect=fixed;fillColor=#dae8fc;strokeColor=#6c8ebf;" parent="1" vertex="1">
          <mxGeometry x="474" y="1120" width="40" height="40" as="geometry" />
        </mxCell>
        <mxCell id="Fy8nT9N8pZBC_BJfb6Fo-32" value="PM4" style="ellipse;whiteSpace=wrap;html=1;aspect=fixed;fillColor=#ffe6cc;strokeColor=#d79b00;" parent="1" vertex="1">
          <mxGeometry x="434" y="860" width="40" height="40" as="geometry" />
        </mxCell>
        <mxCell id="Fy8nT9N8pZBC_BJfb6Fo-33" value="Gnd" style="ellipse;whiteSpace=wrap;html=1;aspect=fixed;" parent="1" vertex="1">
          <mxGeometry x="479" y="290" width="40" height="40" as="geometry" />
        </mxCell>
        <mxCell id="Fy8nT9N8pZBC_BJfb6Fo-34" value="24V" style="ellipse;whiteSpace=wrap;html=1;aspect=fixed;" parent="1" vertex="1">
          <mxGeometry x="569" y="290" width="40" height="40" as="geometry" />
        </mxCell>
        <mxCell id="Fy8nT9N8pZBC_BJfb6Fo-35" value="P" style="ellipse;whiteSpace=wrap;html=1;aspect=fixed;" parent="1" vertex="1">
          <mxGeometry x="399" y="190" width="40" height="40" as="geometry" />
        </mxCell>
        <mxCell id="Fy8nT9N8pZBC_BJfb6Fo-36" value="N" style="ellipse;whiteSpace=wrap;html=1;aspect=fixed;" parent="1" vertex="1">
          <mxGeometry x="319" y="190" width="40" height="40" as="geometry" />
        </mxCell>
        <mxCell id="Fy8nT9N8pZBC_BJfb6Fo-40" value="gris" style="edgeStyle=orthogonalEdgeStyle;rounded=0;orthogonalLoop=1;jettySize=auto;html=1;strokeWidth=3;endArrow=none;endFill=0;strokeColor=#808080;fontColor=#999999;" parent="1" source="Fy8nT9N8pZBC_BJfb6Fo-37" target="Fy8nT9N8pZBC_BJfb6Fo-35" edge="1">
          <mxGeometry relative="1" as="geometry" />
        </mxCell>
        <mxCell id="Fy8nT9N8pZBC_BJfb6Fo-41" value="brun" style="edgeStyle=orthogonalEdgeStyle;rounded=0;orthogonalLoop=1;jettySize=auto;html=1;strokeWidth=3;endArrow=none;endFill=0;entryX=0.5;entryY=1;entryDx=0;entryDy=0;strokeColor=#994C00;fontColor=#994C00;" parent="1" source="Fy8nT9N8pZBC_BJfb6Fo-37" target="Fy8nT9N8pZBC_BJfb6Fo-51" edge="1">
          <mxGeometry relative="1" as="geometry">
            <mxPoint x="419" y="60" as="targetPoint" />
          </mxGeometry>
        </mxCell>
        <mxCell id="Fy8nT9N8pZBC_BJfb6Fo-37" value="C.4" style="ellipse;whiteSpace=wrap;html=1;aspect=fixed;" parent="1" vertex="1">
          <mxGeometry x="399" y="100" width="40" height="40" as="geometry" />
        </mxCell>
        <mxCell id="Fy8nT9N8pZBC_BJfb6Fo-39" value="rouge" style="edgeStyle=orthogonalEdgeStyle;rounded=0;orthogonalLoop=1;jettySize=auto;html=1;entryX=0.5;entryY=0;entryDx=0;entryDy=0;strokeWidth=3;endArrow=none;endFill=0;fontColor=#FF0000;strokeColor=#FF0000;" parent="1" source="Fy8nT9N8pZBC_BJfb6Fo-38" target="Fy8nT9N8pZBC_BJfb6Fo-36" edge="1">
          <mxGeometry relative="1" as="geometry" />
        </mxCell>
        <mxCell id="Fy8nT9N8pZBC_BJfb6Fo-42" value="bleu" style="edgeStyle=orthogonalEdgeStyle;shape=connector;rounded=0;orthogonalLoop=1;jettySize=auto;html=1;labelBackgroundColor=default;strokeColor=#0000FF;strokeWidth=3;align=center;verticalAlign=middle;fontFamily=Helvetica;fontSize=11;fontColor=#3333FF;endArrow=none;endFill=0;entryX=0.5;entryY=1;entryDx=0;entryDy=0;" parent="1" source="Fy8nT9N8pZBC_BJfb6Fo-38" target="Fy8nT9N8pZBC_BJfb6Fo-52" edge="1">
          <mxGeometry relative="1" as="geometry">
            <mxPoint x="339" y="50" as="targetPoint" />
          </mxGeometry>
        </mxCell>
        <mxCell id="Fy8nT9N8pZBC_BJfb6Fo-38" value="C.2" style="ellipse;whiteSpace=wrap;html=1;aspect=fixed;" parent="1" vertex="1">
          <mxGeometry x="319" y="100" width="40" height="40" as="geometry" />
        </mxCell>
        <mxCell id="Fy8nT9N8pZBC_BJfb6Fo-128" value="Bleu" style="edgeStyle=orthogonalEdgeStyle;shape=connector;rounded=0;orthogonalLoop=1;jettySize=auto;html=1;entryX=0.5;entryY=0;entryDx=0;entryDy=0;labelBackgroundColor=default;strokeColor=#0000FF;strokeWidth=3;align=center;verticalAlign=middle;fontFamily=Helvetica;fontSize=11;fontColor=#3333FF;endArrow=none;endFill=0;" parent="1" source="Fy8nT9N8pZBC_BJfb6Fo-43" target="Fy8nT9N8pZBC_BJfb6Fo-56" edge="1">
          <mxGeometry relative="1" as="geometry" />
        </mxCell>
        <mxCell id="Fy8nT9N8pZBC_BJfb6Fo-43" value="PM2" style="ellipse;whiteSpace=wrap;html=1;aspect=fixed;fillColor=#dae8fc;strokeColor=#6c8ebf;" parent="1" vertex="1">
          <mxGeometry x="614" y="520" width="40" height="40" as="geometry" />
        </mxCell>
        <mxCell id="Fy8nT9N8pZBC_BJfb6Fo-44" value="PF2" style="ellipse;whiteSpace=wrap;html=1;aspect=fixed;fillColor=#dae8fc;strokeColor=#6c8ebf;" parent="1" vertex="1">
          <mxGeometry x="574" y="520" width="40" height="40" as="geometry" />
        </mxCell>
        <mxCell id="Fy8nT9N8pZBC_BJfb6Fo-45" value="PM1" style="ellipse;whiteSpace=wrap;html=1;aspect=fixed;" parent="1" vertex="1">
          <mxGeometry x="614" y="721" width="40" height="40" as="geometry" />
        </mxCell>
        <mxCell id="Fy8nT9N8pZBC_BJfb6Fo-46" value="PF3" style="ellipse;whiteSpace=wrap;html=1;aspect=fixed;fillColor=#999999;" parent="1" vertex="1">
          <mxGeometry x="244" y="860" width="40" height="40" as="geometry" />
        </mxCell>
        <mxCell id="Fy8nT9N8pZBC_BJfb6Fo-47" value="PF4" style="ellipse;whiteSpace=wrap;html=1;aspect=fixed;fillColor=#ffe6cc;strokeColor=#d79b00;" parent="1" vertex="1">
          <mxGeometry x="474" y="860" width="40" height="40" as="geometry" />
        </mxCell>
        <mxCell id="Fy8nT9N8pZBC_BJfb6Fo-48" value="B.A2" style="ellipse;whiteSpace=wrap;html=1;aspect=fixed;fillColor=#dae8fc;strokeColor=#6c8ebf;" parent="1" vertex="1">
          <mxGeometry x="242.4" y="1120" width="40" height="40" as="geometry" />
        </mxCell>
        <mxCell id="Fy8nT9N8pZBC_BJfb6Fo-132" style="edgeStyle=orthogonalEdgeStyle;shape=connector;rounded=0;orthogonalLoop=1;jettySize=auto;html=1;entryX=0.5;entryY=0;entryDx=0;entryDy=0;labelBackgroundColor=default;strokeColor=default;strokeWidth=2;align=center;verticalAlign=middle;fontFamily=Helvetica;fontSize=11;fontColor=default;endArrow=none;endFill=0;" parent="1" source="Fy8nT9N8pZBC_BJfb6Fo-49" target="Fy8nT9N8pZBC_BJfb6Fo-99" edge="1">
          <mxGeometry relative="1" as="geometry" />
        </mxCell>
        <mxCell id="Fy8nT9N8pZBC_BJfb6Fo-133" style="edgeStyle=orthogonalEdgeStyle;shape=connector;rounded=0;orthogonalLoop=1;jettySize=auto;html=1;entryX=0.5;entryY=0;entryDx=0;entryDy=0;labelBackgroundColor=default;strokeColor=default;strokeWidth=2;align=center;verticalAlign=middle;fontFamily=Helvetica;fontSize=11;fontColor=default;endArrow=none;endFill=0;" parent="1" source="Fy8nT9N8pZBC_BJfb6Fo-49" target="Fy8nT9N8pZBC_BJfb6Fo-98" edge="1">
          <mxGeometry relative="1" as="geometry" />
        </mxCell>
        <mxCell id="Fy8nT9N8pZBC_BJfb6Fo-49" value="PF1" style="ellipse;whiteSpace=wrap;html=1;aspect=fixed;" parent="1" vertex="1">
          <mxGeometry x="574" y="721" width="40" height="40" as="geometry" />
        </mxCell>
        <mxCell id="Fy8nT9N8pZBC_BJfb6Fo-50" value="Pr T" style="ellipse;whiteSpace=wrap;html=1;aspect=fixed;fillColor=#d5e8d4;strokeColor=#82b366;" parent="1" vertex="1">
          <mxGeometry x="259" y="10" width="40" height="40" as="geometry" />
        </mxCell>
        <mxCell id="Fy8nT9N8pZBC_BJfb6Fo-51" value="Pr P" style="ellipse;whiteSpace=wrap;html=1;aspect=fixed;fillColor=#f8cecc;strokeColor=#b85450;" parent="1" vertex="1">
          <mxGeometry x="399" y="10" width="40" height="40" as="geometry" />
        </mxCell>
        <mxCell id="Fy8nT9N8pZBC_BJfb6Fo-52" value="Pr N" style="ellipse;whiteSpace=wrap;html=1;aspect=fixed;fillColor=#dae8fc;strokeColor=#6c8ebf;" parent="1" vertex="1">
          <mxGeometry x="319" y="10" width="40" height="40" as="geometry" />
        </mxCell>
        <mxCell id="Fy8nT9N8pZBC_BJfb6Fo-123" style="edgeStyle=orthogonalEdgeStyle;shape=connector;rounded=0;orthogonalLoop=1;jettySize=auto;html=1;entryX=0.5;entryY=0;entryDx=0;entryDy=0;labelBackgroundColor=default;strokeColor=default;strokeWidth=2;align=center;verticalAlign=middle;fontFamily=Helvetica;fontSize=11;fontColor=default;endArrow=none;endFill=0;" parent="1" source="Fy8nT9N8pZBC_BJfb6Fo-53" target="Fy8nT9N8pZBC_BJfb6Fo-55" edge="1">
          <mxGeometry relative="1" as="geometry" />
        </mxCell>
        <mxCell id="Fy8nT9N8pZBC_BJfb6Fo-126" value="Noir" style="edgeLabel;html=1;align=center;verticalAlign=middle;resizable=0;points=[];fontSize=11;fontFamily=Helvetica;fontColor=default;" parent="Fy8nT9N8pZBC_BJfb6Fo-123" vertex="1" connectable="0">
          <mxGeometry x="0.44" relative="1" as="geometry">
            <mxPoint y="-9" as="offset" />
          </mxGeometry>
        </mxCell>
        <mxCell id="Fy8nT9N8pZBC_BJfb6Fo-124" style="edgeStyle=orthogonalEdgeStyle;shape=connector;rounded=0;orthogonalLoop=1;jettySize=auto;html=1;entryX=0.5;entryY=1;entryDx=0;entryDy=0;labelBackgroundColor=default;strokeColor=default;strokeWidth=2;align=center;verticalAlign=middle;fontFamily=Helvetica;fontSize=11;fontColor=default;endArrow=none;endFill=0;" parent="1" source="Fy8nT9N8pZBC_BJfb6Fo-53" target="Fy8nT9N8pZBC_BJfb6Fo-34" edge="1">
          <mxGeometry relative="1" as="geometry" />
        </mxCell>
        <mxCell id="Fy8nT9N8pZBC_BJfb6Fo-125" value="NOIR ?" style="edgeLabel;html=1;align=center;verticalAlign=middle;resizable=0;points=[];fontSize=11;fontFamily=Helvetica;fontColor=default;" parent="Fy8nT9N8pZBC_BJfb6Fo-124" vertex="1" connectable="0">
          <mxGeometry x="0.4" y="3" relative="1" as="geometry">
            <mxPoint x="8" y="19" as="offset" />
          </mxGeometry>
        </mxCell>
        <mxCell id="Fy8nT9N8pZBC_BJfb6Fo-53" value="fuse" style="rounded=0;whiteSpace=wrap;html=1;fontFamily=Helvetica;fontSize=11;fontColor=default;" parent="1" vertex="1">
          <mxGeometry x="569" y="380" width="40" height="60" as="geometry" />
        </mxCell>
        <mxCell id="Fy8nT9N8pZBC_BJfb6Fo-120" value="Noir" style="edgeStyle=orthogonalEdgeStyle;shape=connector;rounded=0;orthogonalLoop=1;jettySize=auto;html=1;entryX=0.5;entryY=0;entryDx=0;entryDy=0;labelBackgroundColor=default;strokeColor=default;strokeWidth=2;align=center;verticalAlign=middle;fontFamily=Helvetica;fontSize=11;fontColor=default;endArrow=none;endFill=0;" parent="1" source="Fy8nT9N8pZBC_BJfb6Fo-56" target="Fy8nT9N8pZBC_BJfb6Fo-45" edge="1">
          <mxGeometry relative="1" as="geometry" />
        </mxCell>
        <mxCell id="Fy8nT9N8pZBC_BJfb6Fo-122" style="edgeStyle=orthogonalEdgeStyle;shape=connector;rounded=0;orthogonalLoop=1;jettySize=auto;html=1;labelBackgroundColor=default;strokeColor=#0000FF;strokeWidth=3;align=center;verticalAlign=middle;fontFamily=Helvetica;fontSize=11;fontColor=#3333FF;endArrow=none;endFill=0;exitX=0.5;exitY=0;exitDx=0;exitDy=0;entryX=0.5;entryY=1;entryDx=0;entryDy=0;fillColor=#dae8fc;" parent="1" source="Fy8nT9N8pZBC_BJfb6Fo-44" target="Fy8nT9N8pZBC_BJfb6Fo-54" edge="1">
          <mxGeometry relative="1" as="geometry">
            <mxPoint x="589" y="601" as="targetPoint" />
            <mxPoint x="599" y="646" as="sourcePoint" />
          </mxGeometry>
        </mxCell>
        <mxCell id="Fy8nT9N8pZBC_BJfb6Fo-127" value="Bleu" style="edgeLabel;html=1;align=center;verticalAlign=middle;resizable=0;points=[];fontSize=11;fontFamily=Helvetica;fontColor=default;" parent="Fy8nT9N8pZBC_BJfb6Fo-122" vertex="1" connectable="0">
          <mxGeometry x="-0.0823" relative="1" as="geometry">
            <mxPoint y="-3" as="offset" />
          </mxGeometry>
        </mxCell>
        <mxCell id="Fy8nT9N8pZBC_BJfb6Fo-56" value="Int&lt;br&gt;AU" style="rounded=0;whiteSpace=wrap;html=1;fontFamily=Helvetica;fontSize=11;fontColor=default;" parent="1" vertex="1">
          <mxGeometry x="614" y="591" width="40" height="80" as="geometry" />
        </mxCell>
        <mxCell id="Fy8nT9N8pZBC_BJfb6Fo-98" value="INT&lt;br&gt;MONTEE" style="rounded=0;whiteSpace=wrap;html=1;fontFamily=Helvetica;fontSize=12;fontColor=default;fillColor=#999999;strokeColor=default;" parent="1" vertex="1">
          <mxGeometry x="274" y="761" width="60" height="40" as="geometry" />
        </mxCell>
        <mxCell id="Fy8nT9N8pZBC_BJfb6Fo-99" value="INT&lt;br&gt;DESC" style="rounded=0;whiteSpace=wrap;html=1;fontFamily=Helvetica;fontSize=11;fillColor=#ffe6cc;strokeColor=#d79b00;" parent="1" vertex="1">
          <mxGeometry x="424" y="761" width="60" height="40" as="geometry" />
        </mxCell>
        <mxCell id="Fy8nT9N8pZBC_BJfb6Fo-101" value="" style="group" parent="1" vertex="1" connectable="0">
          <mxGeometry x="248" y="930" width="36" height="79" as="geometry" />
        </mxCell>
        <mxCell id="Fy8nT9N8pZBC_BJfb6Fo-135" value="" style="rounded=0;whiteSpace=wrap;html=1;fontFamily=Helvetica;fontSize=11;fontColor=default;" parent="Fy8nT9N8pZBC_BJfb6Fo-101" vertex="1">
          <mxGeometry x="-7.199999999999999" width="43.199999999999996" height="79" as="geometry" />
        </mxCell>
        <mxCell id="Fy8nT9N8pZBC_BJfb6Fo-102" value="" style="ellipse;whiteSpace=wrap;html=1;aspect=fixed;fillColor=#ffe6cc;strokeColor=#d79b00;" parent="Fy8nT9N8pZBC_BJfb6Fo-101" vertex="1">
          <mxGeometry y="39.89108910891089" width="28.799999999999997" height="28.799999999999997" as="geometry" />
        </mxCell>
        <mxCell id="Fy8nT9N8pZBC_BJfb6Fo-103" value="" style="ellipse;whiteSpace=wrap;html=1;aspect=fixed;" parent="Fy8nT9N8pZBC_BJfb6Fo-101" vertex="1">
          <mxGeometry y="8.603960396039604" width="28.799999999999997" height="28.799999999999997" as="geometry" />
        </mxCell>
        <mxCell id="Fy8nT9N8pZBC_BJfb6Fo-104" value="" style="group" parent="1" vertex="1" connectable="0">
          <mxGeometry x="474" y="981" width="36" height="69" as="geometry" />
        </mxCell>
        <mxCell id="Fy8nT9N8pZBC_BJfb6Fo-106" value="" style="ellipse;whiteSpace=wrap;html=1;aspect=fixed;fillColor=#ffe6cc;strokeColor=#d79b00;" parent="Fy8nT9N8pZBC_BJfb6Fo-104" vertex="1">
          <mxGeometry x="4.7250000000000005" y="3.25" width="31.275000000000002" height="31.275000000000002" as="geometry" />
        </mxCell>
        <mxCell id="Fy8nT9N8pZBC_BJfb6Fo-111" style="edgeStyle=orthogonalEdgeStyle;shape=connector;rounded=0;orthogonalLoop=1;jettySize=auto;html=1;entryX=0.5;entryY=1;entryDx=0;entryDy=0;labelBackgroundColor=default;strokeColor=#994C00;strokeWidth=3;align=center;verticalAlign=middle;fontFamily=Helvetica;fontSize=11;fontColor=#994C00;endArrow=none;endFill=0;exitX=0.5;exitY=0;exitDx=0;exitDy=0;" parent="1" source="Fy8nT9N8pZBC_BJfb6Fo-32" target="Fy8nT9N8pZBC_BJfb6Fo-99" edge="1">
          <mxGeometry relative="1" as="geometry" />
        </mxCell>
        <mxCell id="Fy8nT9N8pZBC_BJfb6Fo-117" value="Brun" style="edgeLabel;html=1;align=center;verticalAlign=middle;resizable=0;points=[];fontSize=11;fontFamily=Helvetica;fontColor=#994C00;" parent="Fy8nT9N8pZBC_BJfb6Fo-111" vertex="1" connectable="0">
          <mxGeometry x="0.0145" y="2" relative="1" as="geometry">
            <mxPoint as="offset" />
          </mxGeometry>
        </mxCell>
        <mxCell id="Fy8nT9N8pZBC_BJfb6Fo-105" value="" style="ellipse;whiteSpace=wrap;html=1;aspect=fixed;fillColor=#ffe6cc;strokeColor=#d79b00;" parent="1" vertex="1">
          <mxGeometry x="479.25" y="954.75" width="29.5" height="29.5" as="geometry" />
        </mxCell>
        <mxCell id="Fy8nT9N8pZBC_BJfb6Fo-114" style="edgeStyle=orthogonalEdgeStyle;shape=connector;rounded=0;orthogonalLoop=1;jettySize=auto;html=1;entryX=0.5;entryY=0;entryDx=0;entryDy=0;labelBackgroundColor=default;strokeColor=#0000FF;strokeWidth=3;align=center;verticalAlign=middle;fontFamily=Helvetica;fontSize=11;fontColor=#3333FF;endArrow=none;endFill=0;" parent="1" source="Fy8nT9N8pZBC_BJfb6Fo-107" target="Fy8nT9N8pZBC_BJfb6Fo-48" edge="1">
          <mxGeometry relative="1" as="geometry" />
        </mxCell>
        <mxCell id="Fy8nT9N8pZBC_BJfb6Fo-141" value="Bleu" style="edgeLabel;html=1;align=center;verticalAlign=middle;resizable=0;points=[];fontSize=11;fontFamily=Helvetica;fontColor=default;" parent="Fy8nT9N8pZBC_BJfb6Fo-114" vertex="1" connectable="0">
          <mxGeometry x="-0.1533" y="3" relative="1" as="geometry">
            <mxPoint as="offset" />
          </mxGeometry>
        </mxCell>
        <mxCell id="Fy8nT9N8pZBC_BJfb6Fo-107" value="INT&lt;br&gt;FDC&lt;br&gt;HAUT" style="rounded=0;whiteSpace=wrap;html=1;fontFamily=Helvetica;fontSize=11;fontColor=default;" parent="1" vertex="1">
          <mxGeometry x="197.4" y="1051.5" width="130" height="39" as="geometry" />
        </mxCell>
        <mxCell id="Fy8nT9N8pZBC_BJfb6Fo-113" style="edgeStyle=orthogonalEdgeStyle;shape=connector;rounded=0;orthogonalLoop=1;jettySize=auto;html=1;entryX=0.5;entryY=0;entryDx=0;entryDy=0;labelBackgroundColor=default;strokeColor=#0000FF;strokeWidth=3;align=center;verticalAlign=middle;fontFamily=Helvetica;fontSize=11;fontColor=#3333FF;endArrow=none;endFill=0;" parent="1" source="Fy8nT9N8pZBC_BJfb6Fo-108" target="Fy8nT9N8pZBC_BJfb6Fo-30" edge="1">
          <mxGeometry relative="1" as="geometry" />
        </mxCell>
        <mxCell id="Fy8nT9N8pZBC_BJfb6Fo-119" value="Bleu" style="edgeLabel;html=1;align=center;verticalAlign=middle;resizable=0;points=[];fontSize=11;fontFamily=Helvetica;fontColor=default;" parent="Fy8nT9N8pZBC_BJfb6Fo-113" vertex="1" connectable="0">
          <mxGeometry x="0.1" y="-1" relative="1" as="geometry">
            <mxPoint as="offset" />
          </mxGeometry>
        </mxCell>
        <mxCell id="Fy8nT9N8pZBC_BJfb6Fo-109" style="edgeStyle=orthogonalEdgeStyle;shape=connector;rounded=0;orthogonalLoop=1;jettySize=auto;html=1;entryX=0.5;entryY=0;entryDx=0;entryDy=0;labelBackgroundColor=default;strokeColor=#994C00;strokeWidth=3;align=center;verticalAlign=middle;fontFamily=Helvetica;fontSize=11;fontColor=#994C00;endArrow=none;endFill=0;" parent="1" source="Fy8nT9N8pZBC_BJfb6Fo-102" target="Fy8nT9N8pZBC_BJfb6Fo-107" edge="1">
          <mxGeometry relative="1" as="geometry" />
        </mxCell>
        <mxCell id="Fy8nT9N8pZBC_BJfb6Fo-115" value="Brun" style="edgeLabel;html=1;align=center;verticalAlign=middle;resizable=0;points=[];fontSize=11;fontFamily=Helvetica;fontColor=default;" parent="Fy8nT9N8pZBC_BJfb6Fo-109" vertex="1" connectable="0">
          <mxGeometry x="-0.0196" y="-2" relative="1" as="geometry">
            <mxPoint as="offset" />
          </mxGeometry>
        </mxCell>
        <mxCell id="Fy8nT9N8pZBC_BJfb6Fo-110" style="edgeStyle=orthogonalEdgeStyle;shape=connector;rounded=0;orthogonalLoop=1;jettySize=auto;html=1;entryX=0.5;entryY=1;entryDx=0;entryDy=0;labelBackgroundColor=default;strokeColor=#808080;strokeWidth=3;align=center;verticalAlign=middle;fontFamily=Helvetica;fontSize=11;fontColor=#999999;endArrow=none;endFill=0;exitX=0.5;exitY=0;exitDx=0;exitDy=0;" parent="1" source="Fy8nT9N8pZBC_BJfb6Fo-136" target="Fy8nT9N8pZBC_BJfb6Fo-98" edge="1">
          <mxGeometry relative="1" as="geometry" />
        </mxCell>
        <mxCell id="Fy8nT9N8pZBC_BJfb6Fo-116" value="Gris" style="edgeLabel;html=1;align=center;verticalAlign=middle;resizable=0;points=[];fontSize=11;fontFamily=Helvetica;fontColor=default;" parent="Fy8nT9N8pZBC_BJfb6Fo-110" vertex="1" connectable="0">
          <mxGeometry x="-0.1429" y="-1" relative="1" as="geometry">
            <mxPoint as="offset" />
          </mxGeometry>
        </mxCell>
        <mxCell id="Fy8nT9N8pZBC_BJfb6Fo-112" style="edgeStyle=orthogonalEdgeStyle;shape=connector;rounded=0;orthogonalLoop=1;jettySize=auto;html=1;entryX=0.5;entryY=0;entryDx=0;entryDy=0;labelBackgroundColor=default;strokeColor=#994C00;strokeWidth=3;align=center;verticalAlign=middle;fontFamily=Helvetica;fontSize=11;fontColor=#994C00;endArrow=none;endFill=0;" parent="1" source="Fy8nT9N8pZBC_BJfb6Fo-106" target="Fy8nT9N8pZBC_BJfb6Fo-108" edge="1">
          <mxGeometry relative="1" as="geometry" />
        </mxCell>
        <mxCell id="Fy8nT9N8pZBC_BJfb6Fo-118" value="Brun" style="edgeLabel;html=1;align=center;verticalAlign=middle;resizable=0;points=[];fontSize=11;fontFamily=Helvetica;fontColor=default;" parent="Fy8nT9N8pZBC_BJfb6Fo-112" vertex="1" connectable="0">
          <mxGeometry x="0.2653" y="1" relative="1" as="geometry">
            <mxPoint as="offset" />
          </mxGeometry>
        </mxCell>
        <mxCell id="Fy8nT9N8pZBC_BJfb6Fo-136" value="PM3" style="ellipse;whiteSpace=wrap;html=1;aspect=fixed;fillColor=#999999;" parent="1" vertex="1">
          <mxGeometry x="284" y="860" width="40" height="40" as="geometry" />
        </mxCell>
        <mxCell id="Fy8nT9N8pZBC_BJfb6Fo-137" style="edgeStyle=orthogonalEdgeStyle;shape=connector;rounded=0;orthogonalLoop=1;jettySize=auto;html=1;entryX=0.5;entryY=1;entryDx=0;entryDy=0;labelBackgroundColor=default;strokeColor=#808080;strokeWidth=3;align=center;verticalAlign=middle;fontFamily=Helvetica;fontSize=11;fontColor=#999999;endArrow=none;endFill=0;exitX=0.5;exitY=0;exitDx=0;exitDy=0;fillColor=#999999;" parent="1" source="Fy8nT9N8pZBC_BJfb6Fo-103" target="Fy8nT9N8pZBC_BJfb6Fo-46" edge="1">
          <mxGeometry relative="1" as="geometry">
            <mxPoint x="314" y="951" as="sourcePoint" />
            <mxPoint x="314" y="851" as="targetPoint" />
          </mxGeometry>
        </mxCell>
        <mxCell id="Fy8nT9N8pZBC_BJfb6Fo-138" value="Gris" style="edgeLabel;html=1;align=center;verticalAlign=middle;resizable=0;points=[];fontSize=11;fontFamily=Helvetica;fontColor=default;" parent="Fy8nT9N8pZBC_BJfb6Fo-137" vertex="1" connectable="0">
          <mxGeometry x="-0.1429" y="-1" relative="1" as="geometry">
            <mxPoint as="offset" />
          </mxGeometry>
        </mxCell>
        <mxCell id="Fy8nT9N8pZBC_BJfb6Fo-139" style="edgeStyle=orthogonalEdgeStyle;shape=connector;rounded=0;orthogonalLoop=1;jettySize=auto;html=1;entryX=0.5;entryY=1;entryDx=0;entryDy=0;labelBackgroundColor=default;strokeColor=#994C00;strokeWidth=3;align=center;verticalAlign=middle;fontFamily=Helvetica;fontSize=11;fontColor=#994C00;endArrow=none;endFill=0;exitX=0.5;exitY=0;exitDx=0;exitDy=0;" parent="1" source="Fy8nT9N8pZBC_BJfb6Fo-105" target="Fy8nT9N8pZBC_BJfb6Fo-47" edge="1">
          <mxGeometry relative="1" as="geometry">
            <mxPoint x="464" y="951" as="sourcePoint" />
            <mxPoint x="464" y="851" as="targetPoint" />
          </mxGeometry>
        </mxCell>
        <mxCell id="Fy8nT9N8pZBC_BJfb6Fo-140" value="Brun" style="edgeLabel;html=1;align=center;verticalAlign=middle;resizable=0;points=[];fontSize=11;fontFamily=Helvetica;fontColor=#994C00;" parent="Fy8nT9N8pZBC_BJfb6Fo-139" vertex="1" connectable="0">
          <mxGeometry x="0.0145" y="2" relative="1" as="geometry">
            <mxPoint x="2" y="-5" as="offset" />
          </mxGeometry>
        </mxCell>
      </root>
    </mxGraphModel>
  </diagram>
</mxfile>
